<svg xmlns="http://www.w3.org/2000/svg" width="170" height="152.35" viewBox="0 0 170 152.35">
  <g id="Group_233" data-name="Group 233" transform="translate(-122 -233.65)">
    <path id="Path" d="M23.25,8C9.443,8-1.5-8.284-1.5,0S11.193,30,25,30,48.5,12.678,48.5,4.393c0-3.978-1.134,2.813-5.822,0S29.88,8,23.25,8Z" transform="translate(183.5 296)" fill="#febd00" opacity="0.4"/>
    <path id="Icon_color" data-name="Icon color" d="M25,50A25.007,25.007,0,0,1,15.269,1.965,25.007,25.007,0,0,1,34.731,48.036,24.843,24.843,0,0,1,25,50ZM16.325,24.021a1.206,1.206,0,0,0-.875.379l-1.326,1.325a1.253,1.253,0,0,0,0,1.776l5.951,5.874a1.2,1.2,0,0,0,1.75,0l14.05-14.05a1.246,1.246,0,0,0,0-1.724L34.55,16.275a1.251,1.251,0,0,0-1.75,0L20.95,28.125,17.2,24.4A1.206,1.206,0,0,0,16.325,24.021Z" transform="translate(182 264)" fill="#febd00"/>
  </g>
</svg>
