<svg xmlns="http://www.w3.org/2000/svg" width="37" height="37" viewBox="0 0 37 37">
  <g id="checkmark_circle" transform="translate(0.034 0.207)">
    <path id="Icon_color" data-name="Icon color" d="M18.5,37A18.5,18.5,0,0,1,11.3,1.454,18.5,18.5,0,0,1,25.7,35.546,18.383,18.383,0,0,1,18.5,37ZM12.08,17.775a.892.892,0,0,0-.647.28l-.981.98a.927.927,0,0,0,0,1.314l4.4,4.347a.887.887,0,0,0,1.295,0l10.4-10.4a.922.922,0,0,0,0-1.276l-.98-.981a.926.926,0,0,0-1.3,0L15.5,20.812l-2.775-2.757A.892.892,0,0,0,12.08,17.775Z" transform="translate(-0.034 -0.207)" fill="#ffbe00"/>
  </g>
</svg>
